<?xml version="1.0" encoding="UTF-8"?>
<svg version="1.1" xmlns="http://www.w3.org/2000/svg" xmlns:xlink="http://www.w3.org/1999/xlink">
<defs>

</defs>
<symbol id="i-file" xmlns="http://www.w3.org/2000/svg" viewBox="-614 336 50 50"><path d="M-572.7 345.4l-8.2-8.5c-.3-.3-.8-.1-.8.3v8.5c0 .3.2.5.5.5h8.3c.3 0 .5-.5.2-.8z"/><path d="M-573.1 348.6h-9.9c-.7 0-1.2-.5-1.2-1.2v-10.2c0-.7-.5-1.2-1.2-1.2h-19.5c-.7 0-1.2.6-1.2 1.2v47.5c0 .7.5 1.2 1.2 1.2h31.8c.7 0 1.2-.6 1.2-1.2v-34.9c0-.6-.5-1.2-1.2-1.2zm-7.4 21.9c0 1.7-1.3 3-3 3s-3-1.3-3-3 1.3-3 3-3c.3 0 .7.1 1 .2v-7.8l-11 2.2v11.4c0 1.7-1.3 3-3 3s-3-1.3-3-3 1.3-3 3-3c.3 0 .7.1 1 .2v-12.2l15-3v15zM-606.1 386z"/></symbol>
<symbol id="i-home" xmlns="http://www.w3.org/2000/svg" viewBox="0 0 50 50"><path d="M50 25l-9.4-9.4V4.4h-6.2v5L25 0 0 25h6.3v25h18.1V35h8.7v15h10.7V25z"/></symbol>
<symbol id="i-info" xmlns="http://www.w3.org/2000/svg" viewBox="0 0 50 50"><path d="M29.3 44.8V15.6H13.8v5.1h6.9v24.1h-6.9V50h22.4v-5.2z"/><circle cx="25" cy="6" r="6"/></symbol>
<symbol id="i-knifftech-logo" xmlns="http://www.w3.org/2000/svg" viewBox="0 0 50 50"><path d="M50 0H0v50h50V0zM16.6 15.6L26 6.2h8L16.6 23.6v-8zm-3.8 28.2H7.1V6.2h5.7v37.6zm22.7 0h-5.7V27.6l5.7-5.7v21.9zm-18.9-7.6v-8l22-22h8l-30 30z"/></symbol>
<symbol id="i-microphone" xmlns="http://www.w3.org/2000/svg" viewBox="-614 336 50 50"><path d="M-573.4 359.1h-2.5c-.6 0-1.1.5-1.2 1.1-.5 6.1-5.7 10.9-12 10.9s-11.4-4.8-12-10.9c-.1-.6-.6-1.1-1.2-1.1h-2.5c-.7 0-1.2.6-1.2 1.3.6 7.9 6.7 14.2 14.4 15.3v6.7h-5.4c-.6 0-1.2.5-1.2 1.2v1.3c0 .6.5 1.2 1.2 1.2h15.5c.6 0 1.2-.5 1.2-1.2v-1.3c0-.6-.5-1.2-1.2-1.2h-5.4v-6.7c7.8-1.1 13.8-7.5 14.5-15.3.2-.7-.3-1.3-1-1.3z"/><path d="M-589 368.6c5.3 0 9.5-4.3 9.5-9.5v-13.6c0-5.2-4.2-9.5-9.5-9.5s-9.5 4.3-9.5 9.5V359c0 5.3 4.2 9.6 9.5 9.6z"/></symbol>
<symbol id="i-tap" xmlns="http://www.w3.org/2000/svg" viewBox="-614 336 50 50"><path d="M-599.7 344.7c.7 0 1.3-.6 1.3-1.3 0-2.6 2.1-4.7 4.5-4.7 2.5 0 4.5 2.1 4.5 4.7 0 .7.6 1.3 1.3 1.3.7 0 1.3-.6 1.3-1.3 0-4.1-3.2-7.4-7.1-7.4-4 0-7.1 3.3-7.1 7.4 0 .6.6 1.3 1.3 1.3z"/><path d="M-574.3 355.7h-.4c-1.1.2-1.9 1.2-1.9 2.4v3.6c0 .3-.2.5-.5.5s-.5-.2-.5-.5v-5.1c-.1-2.4-1.7-4.4-3.6-4.1-1.1.2-1.9 1.2-1.9 2.4v4.9c0 .3-.2.5-.5.5s-.5-.2-.5-.5v-6.2c0-2.5-1.7-4.6-3.6-4.3-1.1.1-1.9 1.2-1.9 2.4v7.4c0 .3-.2.5-.5.5s-.5-.2-.5-.5v-13.7c0-2.5-1.6-4.6-3.6-4.4-1.7.2-2.9 1.9-2.9 4.1V365h-.1l-4-7.5c-1.2-1.7-3.2-1.9-4.6-.4-1.3 1.5-1.5 4.1-.3 5.8 2.4 5 7.5 23.1 20.5 23.1 11.8 0 14.5-8.2 14.5-18.3v-7.8c0-2.4-1.5-4.2-3.2-4.2z"/></symbol>
</svg>