<?xml version="1.0" encoding="utf-8"?>
<!-- Generator: Adobe Illustrator 19.0.0, SVG Export Plug-In . SVG Version: 6.00 Build 0)  -->
<svg version="1.1" id="Layer_1" xmlns="http://www.w3.org/2000/svg" xmlns:xlink="http://www.w3.org/1999/xlink" x="0px" y="0px"
	 viewBox="-614 336 50 50" style="enable-background:new -614 336 50 50;" xml:space="preserve">
<g>
	<g>
		<path d="M-572.7,345.4l-8.2-8.5c-0.3-0.3-0.8-0.1-0.8,0.3v2.3v6.2c0,0.3,0.2,0.5,0.5,0.5h6h2.3
			C-572.6,346.2-572.4,345.7-572.7,345.4z"/>
		<path d="M-573.1,348.6h-9.9c-0.7,0-1.2-0.5-1.2-1.2v-10.2c0-0.7-0.5-1.2-1.2-1.2h-19.5c-0.7,0-1.2,0.6-1.2,1.2v47.5
			c0,0.7,0.5,1.2,1.2,1.2h31.8c0.7,0,1.2-0.6,1.2-1.2v-34.9C-571.9,349.2-572.4,348.6-573.1,348.6z M-580.5,370.5c0,1.7-1.3,3-3,3
			s-3-1.3-3-3s1.3-3,3-3c0.3,0,0.7,0.1,1,0.2v-7.8l-11,2.2v11.4c0,1.7-1.3,3-3,3s-3-1.3-3-3s1.3-3,3-3c0.3,0,0.7,0.1,1,0.2v-12.2
			l15-3V370.5z"/>
	</g>
	<path d="M-606.1,386L-606.1,386z"/>
</g>
</svg>
