<?xml version="1.0" encoding="utf-8"?>
<!-- Generator: Adobe Illustrator 19.0.0, SVG Export Plug-In . SVG Version: 6.00 Build 0)  -->
<svg version="1.1" id="Layer_1" xmlns="http://www.w3.org/2000/svg" xmlns:xlink="http://www.w3.org/1999/xlink" x="0px" y="0px"
	 viewBox="-614 336 50 50" style="enable-background:new -614 336 50 50;" xml:space="preserve">
<g>
	<path d="M-599.7,344.7c0.7,0,1.3-0.6,1.3-1.3c0-2.6,2.1-4.7,4.5-4.7c2.5,0,4.5,2.1,4.5,4.7c0,0.7,0.6,1.3,1.3,1.3
		c0.7,0,1.3-0.6,1.3-1.3c0-4.1-3.2-7.4-7.1-7.4c-4,0-7.1,3.3-7.1,7.4C-601,344-600.4,344.7-599.7,344.7z"/>
	<path d="M-574.3,355.7c-0.1,0-0.3,0-0.4,0c-1.1,0.2-1.9,1.2-1.9,2.4v3.6c0,0.3-0.2,0.5-0.5,0.5c-0.3,0-0.5-0.2-0.5-0.5v-5.1
		c-0.1-2.4-1.7-4.4-3.6-4.1c0,0,0,0,0,0c-1.1,0.2-1.9,1.2-1.9,2.4v4.9c0,0.3-0.2,0.5-0.5,0.5c-0.3,0-0.5-0.2-0.5-0.5v-6.2
		c0-2.5-1.7-4.6-3.6-4.3c0,0,0,0,0,0c-1.1,0.1-1.9,1.2-1.9,2.4v7.4c0,0.3-0.2,0.5-0.5,0.5c-0.3,0-0.5-0.2-0.5-0.5v-13.7
		c0-2.5-1.6-4.6-3.6-4.4c-1.7,0.2-2.9,1.9-2.9,4.1v19.9c-0.1,0-0.1,0-0.1,0l-4-7.5c-1.2-1.7-3.2-1.9-4.6-0.4
		c-1.3,1.5-1.5,4.1-0.3,5.8c2.4,5,7.5,23.1,20.5,23.1c11.8,0,14.5-8.2,14.5-18.3v-7.8C-571.1,357.5-572.6,355.7-574.3,355.7z"/>
</g>
</svg>
